<svg width="393" height="260" viewBox="0 0 393 260" fill="none" xmlns="http://www.w3.org/2000/svg">
<g clip-path="url(#clip0)">
<path d="M75.7844 137.138C62.2943 141.946 42.4489 148.138 27.8196 136.897C13.1903 125.657 22.1238 98.8186 0 85.8953C0 85.8953 26.1408 74.9255 47.3053 87.6685C68.4698 100.411 54.3202 124.365 75.7844 137.138Z" fill="url(#paint0_linear)"/>
<path d="M67.3005 136.326C58.3071 133.742 48.3843 130.676 41.969 123.313C34.1448 114.296 31.6866 101.193 22.1236 93.619C14.9888 87.9988 7.82407 88.0288 0.239624 86.0453C22.0636 98.9686 13.37 125.687 27.8794 136.867C41.6693 147.476 60.1357 142.547 73.5059 137.919C71.1976 137.408 68.9493 136.807 67.3005 136.326Z" fill="url(#paint1_linear)"/>
<path d="M81.2106 143.179C74.2327 143.022 67.29 142.136 60.4958 140.534C53.3886 138.761 46.8867 135.108 41.6695 129.955C39.0695 127.421 36.947 124.438 35.4041 121.149C33.9937 118 32.8991 114.717 32.1365 111.351C31.4102 108.164 30.4071 105.046 29.1387 102.034C27.8512 99.0425 25.7793 96.4563 23.1431 94.5507C26.176 96.0758 28.7439 98.3907 30.5776 101.253C32.3348 104.122 33.8394 107.138 35.0743 110.269C36.272 113.214 37.7582 116.033 39.5111 118.684C41.2279 121.156 43.3577 123.311 45.8065 125.056C50.5879 128.624 56.2444 130.826 62.1745 131.427C68.3938 131.97 74.6522 131.87 80.8509 131.127L81.2106 143.179Z" fill="white"/>
<path d="M119.133 136.988C100.666 139.212 73.7461 141.255 58.4573 122.982C43.1685 104.709 61.9647 73.0922 37.4727 50.4313C37.4727 50.4313 73.7161 43.9996 96.9491 66.1797C120.182 88.3598 95.5401 114.657 119.133 136.988Z" fill="url(#paint2_linear)"/>
<path d="M108.55 133.532C97.7582 127.521 86.1867 120.969 80.1311 109.789C72.7565 96.1741 73.3861 78.8027 63.4034 66.4804C56.0288 57.4641 46.9155 55.3603 37.8322 50.6719C61.8146 73.3028 43.1982 104.77 58.457 122.983C72.9064 140.354 97.7282 139.392 115.985 137.318C113.197 136.026 110.649 134.644 108.55 133.532Z" fill="url(#paint3_linear)"/>
<path d="M124.649 144.441C115.932 142.426 107.451 139.494 99.3472 135.695C90.9867 131.643 83.864 125.415 78.7223 117.663C76.1364 113.832 74.2579 109.566 73.1764 105.07C72.2167 100.735 71.6845 96.3155 71.5875 91.8759C71.5468 87.6404 71.1355 83.4166 70.3584 79.2531C69.4739 75.0854 67.4857 71.2337 64.6027 68.1029C67.9567 70.9263 70.4932 74.6006 71.9473 78.7422C73.3182 82.8933 74.3214 87.1575 74.9451 91.4852C75.5529 95.5805 76.5569 99.6067 77.9429 103.507C79.3395 107.234 81.3678 110.691 83.9385 113.725C89.0062 119.859 95.6363 124.501 103.124 127.16C110.907 129.807 118.945 131.631 127.107 132.6L124.649 144.441Z" fill="white"/>
<path d="M154.567 144.832C131.484 141.406 98.1481 135.124 85.6173 107.745C73.0865 80.3654 106.332 48.4477 84.2983 12.9235C84.2983 12.9235 130.345 17.1611 151.149 51.7236C171.954 86.2861 133.342 109.939 154.567 144.832Z" fill="url(#paint4_linear)"/>
<path d="M142.905 137.138C131.903 126.408 119.912 114.507 116.315 98.9388C111.878 79.9745 118.383 59.1769 110.319 40.9339C104.323 27.4395 94.0109 21.9996 84.5678 13.3139C106.152 48.6879 73.266 80.4854 85.677 107.745C97.4583 133.591 127.856 140.654 150.639 144.261C147.702 141.706 145.064 139.182 142.905 137.138Z" fill="url(#paint5_linear)"/>
<path d="M159.483 154.329C149.663 149.128 140.419 142.903 131.903 135.755C123.166 128.257 116.602 118.54 112.897 107.624C111.005 102.22 110.092 96.5203 110.199 90.7938C110.405 85.2646 111.148 79.7687 112.418 74.3842C113.708 69.2082 114.541 63.9282 114.906 58.6056C115.134 53.2574 113.934 47.9451 111.428 43.2178C114.477 47.7852 116.247 53.0888 116.555 58.5756C116.735 64.0314 116.434 69.4924 115.655 74.8951C114.956 80.1136 114.765 85.388 115.086 90.6436C115.473 95.6685 116.72 100.589 118.773 105.19C122.84 114.505 129.345 122.543 137.599 128.452C146.141 134.408 155.285 139.445 164.879 143.479L159.483 154.329Z" fill="white"/>
<path d="M197.136 165.87C172.344 155.832 136.91 139.813 130.404 105.972C123.899 72.1304 169.376 45.5323 154.387 0C154.387 0 204.54 17.161 218.42 61.2808C232.3 105.401 182.866 121.299 197.136 165.87Z" fill="url(#paint6_linear)"/>
<path d="M186.224 154.179C176.691 139.151 166.738 122.772 166.858 104.469C167.008 82.1384 179.839 60.7397 175.851 38.3492C172.854 21.7292 162.781 12.8632 154.597 0.631042C169.106 45.7125 123.929 72.3707 130.435 106.122C136.58 138.1 168.537 154.209 192.969 164.307C190.331 160.55 188.052 157.034 186.224 154.179Z" fill="url(#paint7_linear)"/>
<path d="M200.613 177.11C191.019 168.758 182.337 159.409 174.712 149.22C167.014 138.643 162.293 126.187 161.042 113.154C160.359 106.68 160.836 100.135 162.451 93.8294C164.133 87.7426 166.402 81.8341 169.226 76.1876C172.019 70.7422 174.326 65.0598 176.121 59.2069C177.724 53.3035 177.724 47.0777 176.121 41.1743C178.236 47.0862 178.732 53.4581 177.56 59.6277C176.261 65.7391 174.425 71.7232 172.074 77.51C169.847 83.1345 168.171 88.9623 167.067 94.9114C166.13 100.721 166.211 106.651 167.307 112.433C169.274 124.013 174.329 134.845 181.936 143.78C189.832 152.791 198.654 160.941 208.257 168.094L200.613 177.11Z" fill="white"/>
<path d="M228.073 195.022C205.29 176.448 173.273 148.167 177.38 110.539C181.487 72.9114 237.816 59.7777 236.827 7.15265C236.827 7.15265 283.892 41.4145 284.222 92.2063C284.551 142.998 227.533 143.629 228.073 195.022Z" fill="url(#paint8_linear)"/>
<path d="M220.428 179.214C215.242 160.43 210.116 139.963 216.171 120.788C223.516 97.4062 243.901 79.1031 246.899 54.0979C249.147 35.7948 241.413 23.2321 236.826 7.72412C237.456 59.8683 181.517 73.0622 177.44 110.54C173.543 146.094 201.872 173.293 224.236 191.837C222.677 187.238 221.418 182.82 220.428 179.214Z" fill="url(#paint9_linear)"/>
<path d="M228.612 207.645C221.219 195.826 215.099 183.253 210.356 170.138C208.072 163.329 206.642 156.262 206.099 149.1C205.594 141.994 206.079 134.853 207.538 127.881C208.891 120.918 211.469 114.253 215.152 108.196C218.845 102.368 223.091 96.9128 227.833 91.9062C232.5 87.0802 236.734 81.8505 240.484 76.278C244.144 70.5997 246.215 64.0394 246.479 57.2837C246.774 64.17 245.222 71.0096 241.983 77.0894C238.631 83.0611 234.759 88.7234 230.411 94.01C226.237 99.1828 222.572 104.749 219.469 110.63C216.538 116.456 214.651 122.753 213.893 129.234C212.17 142.079 213.941 155.153 219.019 167.072C224.364 179.137 230.966 190.601 238.715 201.274L228.612 207.645Z" fill="white"/>
<path d="M249.327 244.762C233.529 208.396 212.664 154.599 240.783 112.223C268.903 69.846 344.417 88.9606 375.685 25.3356C375.685 25.3356 410.879 95.5425 379.941 156.523C349.004 217.503 280.354 182.94 249.327 244.762Z" fill="url(#paint10_linear)"/>
<path d="M249.927 221.08C255.323 195.413 261.918 167.703 280.865 148.498C304.097 125.116 339.771 115.799 358.807 87.8787C372.837 67.2314 371.368 47.3955 375.385 25.9668C343.968 88.7804 268.873 69.8461 240.874 112.193C214.313 152.345 231.461 202.356 246.869 238.421C247.619 232.08 248.818 226.009 249.927 221.08Z" fill="url(#paint11_linear)"/>
<path d="M244.261 260C243.122 241.697 242.222 222.943 245.04 204.189C246.393 194.789 248.9 185.592 252.505 176.809C256.113 168.074 260.926 159.889 266.804 152.495C272.648 145.026 279.75 138.638 287.789 133.621C295.731 128.863 304.114 124.888 312.821 121.75C321.376 118.782 329.652 115.06 337.553 110.63C345.379 105.988 351.819 99.3242 356.199 91.3348C352.226 99.6981 346.087 106.839 338.422 112.012C330.69 116.983 322.534 121.258 314.05 124.785C305.789 128.321 297.888 132.649 290.457 137.709C283.325 142.81 277.111 149.091 272.081 156.282C261.773 170.668 255.556 187.589 254.094 205.241C252.355 222.822 254.094 240.795 256.132 258.797L244.261 260Z" fill="white"/>
</g>
<defs>
<linearGradient id="paint0_linear" x1="10789.5" y1="-711.727" x2="6777.29" y2="-2985.3" gradientUnits="userSpaceOnUse">
<stop stop-color="#69B69F"/>
<stop offset="1" stop-color="#297283"/>
</linearGradient>
<linearGradient id="paint1_linear" x1="17443.9" y1="3100.94" x2="17080.4" y2="4044.05" gradientUnits="userSpaceOnUse">
<stop stop-color="#69B69F"/>
<stop offset="1" stop-color="#69B69F"/>
</linearGradient>
<linearGradient id="paint2_linear" x1="11663.5" y1="-1092.18" x2="6823.06" y2="-3145.58" gradientUnits="userSpaceOnUse">
<stop stop-color="#69B69F"/>
<stop offset="1" stop-color="#297283"/>
</linearGradient>
<linearGradient id="paint3_linear" x1="18644.8" y1="4679.8" x2="17939.3" y2="5951.56" gradientUnits="userSpaceOnUse">
<stop stop-color="#69B69F"/>
<stop offset="1" stop-color="#69B69F"/>
</linearGradient>
<linearGradient id="paint4_linear" x1="10736.1" y1="-1682.26" x2="5838.14" y2="-2964.63" gradientUnits="userSpaceOnUse">
<stop stop-color="#69B69F"/>
<stop offset="1" stop-color="#297283"/>
</linearGradient>
<linearGradient id="paint5_linear" x1="16238.1" y1="6921.21" x2="14998.6" y2="8221.24" gradientUnits="userSpaceOnUse">
<stop stop-color="#69B69F"/>
<stop offset="1" stop-color="#69B69F"/>
</linearGradient>
<linearGradient id="paint6_linear" x1="13105.7" y1="-2131.63" x2="7116.24" y2="-3650.59" gradientUnits="userSpaceOnUse">
<stop stop-color="#69B69F"/>
<stop offset="1" stop-color="#297283"/>
</linearGradient>
<linearGradient id="paint7_linear" x1="15171.9" y1="8635.1" x2="13666.9" y2="9810.91" gradientUnits="userSpaceOnUse">
<stop stop-color="#69B69F"/>
<stop offset="1" stop-color="#69B69F"/>
</linearGradient>
<linearGradient id="paint8_linear" x1="15439.4" y1="-2407.2" x2="8427.78" y2="-4253.79" gradientUnits="userSpaceOnUse">
<stop stop-color="#69B69F"/>
<stop offset="1" stop-color="#297283"/>
</linearGradient>
<linearGradient id="paint9_linear" x1="16896" y1="9720.31" x2="15208.1" y2="11023.3" gradientUnits="userSpaceOnUse">
<stop stop-color="#69B69F"/>
<stop offset="1" stop-color="#69B69F"/>
</linearGradient>
<linearGradient id="paint10_linear" x1="23822.2" y1="-2794.56" x2="13486.5" y2="-6397.52" gradientUnits="userSpaceOnUse">
<stop stop-color="#69B69F"/>
<stop offset="1" stop-color="#297283"/>
</linearGradient>
<linearGradient id="paint11_linear" x1="35546.9" y1="11233.7" x2="33648.3" y2="13916.9" gradientUnits="userSpaceOnUse">
<stop stop-color="#69B69F"/>
<stop offset="1" stop-color="#69B69F"/>
</linearGradient>
<clipPath id="clip0">
<rect width="392.652" height="260" fill="white"/>
</clipPath>
</defs>
</svg>
