<svg width="200" height="200" viewBox="0 0 200 200" fill="none" xmlns="http://www.w3.org/2000/svg">
<rect width="200" height="200" rx="21" fill="url(#paint0_linear)"/>
<path d="M96.856 102.6C101.944 102.6 104.488 104.76 104.488 109.08C104.488 112.536 103.528 114.936 101.608 116.28C99.688 117.624 96.664 118.296 92.536 118.296H89.512L88.936 125.928C88.648 130.344 87.688 133.32 86.056 134.856C84.52 136.392 81.976 137.16 78.424 137.16C73.336 137.16 70.792 134.04 70.792 127.8C70.792 126.744 70.84 125.928 70.936 125.352L71.656 118.296C57.736 118.296 47.176 118.248 39.976 118.152C37.864 118.152 35.992 117.192 34.36 115.272C32.728 113.352 31.912 110.856 31.912 107.784C31.912 105.96 32.248 104.04 32.92 102.024C37.144 89.736 43.48 75.768 51.928 60.12C53.752 56.76 55.576 54.408 57.4 53.064C59.32 51.624 62.248 50.904 66.184 50.904C68.296 50.904 69.88 51.384 70.936 52.344C72.088 53.304 72.664 54.552 72.664 56.088C72.664 57.72 72.184 59.352 71.224 60.984C61.816 78.168 55.192 92.04 51.352 102.6H73.528C74.68 93.672 76.264 85.176 78.28 77.112C79.048 74.136 80.296 71.88 82.024 70.344C83.752 68.712 86.152 67.896 89.224 67.896C94.12 67.896 96.568 70.008 96.568 74.232C96.568 75.48 96.472 76.44 96.28 77.112C94.552 85.272 93.016 93.768 91.672 102.6H96.856ZM129.997 135.72C125.485 135.72 121.837 133.896 119.053 130.248C116.365 126.504 115.021 121.368 115.021 114.84C115.021 107.64 115.501 101.064 116.461 95.112C117.421 89.064 119.005 82.68 121.213 75.96C122.173 73.08 123.517 71.016 125.245 69.768C126.973 68.52 129.709 67.896 133.453 67.896C135.565 67.896 137.005 68.232 137.773 68.904C138.637 69.576 139.069 70.584 139.069 71.928C139.069 72.696 138.541 75.288 137.485 79.704C136.525 83.256 135.757 86.472 135.181 89.352C133.261 99.432 132.301 106.152 132.301 109.512C132.301 111.528 132.541 112.968 133.021 113.832C133.501 114.6 134.269 114.984 135.325 114.984C136.765 114.984 138.589 113.544 140.797 110.664C143.005 107.688 145.309 103.272 147.709 97.416C150.205 91.464 152.557 84.312 154.765 75.96C155.533 73.08 156.685 71.016 158.221 69.768C159.853 68.52 162.253 67.896 165.421 67.896C167.533 67.896 169.021 68.472 169.885 69.624C170.845 70.68 171.325 72.312 171.325 74.52C171.325 76.92 171.133 79.608 170.749 82.584C170.365 85.464 169.933 88.44 169.453 91.512C168.493 97.656 167.725 103.272 167.149 108.36C166.573 113.352 166.285 119.064 166.285 125.496C166.285 129.144 165.517 131.784 163.981 133.416C162.541 134.952 160.141 135.72 156.781 135.72C153.229 135.72 150.733 134.808 149.293 132.984C147.949 131.064 147.277 127.416 147.277 122.04C147.277 120.984 147.373 118.632 147.565 114.984C145.933 121.704 143.485 126.84 140.221 130.392C137.053 133.944 133.645 135.72 129.997 135.72Z" fill="white"/>
<defs>
<linearGradient id="paint0_linear" x1="10.5" y1="11" x2="189.5" y2="181.5" gradientUnits="userSpaceOnUse">
<stop stop-color="#297283"/>
<stop offset="1" stop-color="#69B69F"/>
</linearGradient>
</defs>
</svg>
